# Blender v2.77 (sub 0) OBJ File: ''
# www.blender.org
mtllib cone.mtl
o Cone
v 1.300000 0.500000 -0.500000
v 5.300000 0.500000 0.000000
v 1.300000 0.402455 -0.490393
v 1.300000 0.308659 -0.461940
v 1.300000 0.222215 -0.415735
v 1.300000 0.146447 -0.353554
v 1.300000 0.084265 -0.277785
v 1.300000 0.038061 -0.191342
v 1.300000 0.009608 -0.097545
v 1.300000 0.000000 -0.000000
v 1.300000 0.009607 0.097545
v 1.300000 0.038060 0.191341
v 1.300000 0.084265 0.277785
v 1.300000 0.146446 0.353553
v 1.300000 0.222215 0.415735
v 1.300000 0.308658 0.461940
v 1.300000 0.402455 0.490392
v 1.300000 0.500000 0.500000
v 1.300000 0.597545 0.490393
v 1.300000 0.691342 0.461940
v 1.300000 0.777785 0.415735
v 1.300000 0.853553 0.353553
v 1.300000 0.915735 0.277785
v 1.300000 0.961940 0.191342
v 1.300000 0.990392 0.097545
v 1.300000 1.000000 -0.000000
v 1.300000 0.990393 -0.097545
v 1.300000 0.961940 -0.191342
v 1.300000 0.915735 -0.277785
v 1.300000 0.853553 -0.353554
v 1.300000 0.777785 -0.415735
v 1.300000 0.691341 -0.461940
v 1.300000 0.597545 -0.490393
vn 0.1234 -0.0973 -0.9876
vn 0.1234 -0.2881 -0.9496
vn 0.1234 -0.4678 -0.8752
vn 0.1234 -0.6295 -0.7671
vn 0.1234 -0.7671 -0.6295
vn 0.1234 -0.8752 -0.4678
vn 0.1234 -0.9496 -0.2881
vn 0.1234 -0.9876 -0.0973
vn 0.1234 -0.9876 0.0973
vn 0.1234 -0.9496 0.2881
vn 0.1234 -0.8752 0.4678
vn 0.1234 -0.7671 0.6295
vn 0.1234 -0.6295 0.7671
vn 0.1234 -0.4678 0.8752
vn 0.1234 -0.2881 0.9496
vn 0.1234 -0.0973 0.9876
vn 0.1234 0.0973 0.9876
vn 0.1234 0.2881 0.9496
vn 0.1234 0.4678 0.8752
vn 0.1234 0.6295 0.7671
vn 0.1234 0.7671 0.6295
vn 0.1234 0.8752 0.4678
vn 0.1234 0.9496 0.2881
vn 0.1234 0.9876 0.0973
vn 0.1234 0.9876 -0.0973
vn 0.1234 0.9496 -0.2881
vn 0.1234 0.8752 -0.4678
vn 0.1234 0.7671 -0.6295
vn 0.1234 0.6295 -0.7671
vn 0.1234 0.4678 -0.8752
vn 0.1234 0.2881 -0.9496
vn 0.1234 0.0973 -0.9876
vn -1.0000 -0.0000 0.0000
usemtl None
s 1
f 1//1 2//1 3//1
f 3//2 2//2 4//2
f 4//3 2//3 5//3
f 5//4 2//4 6//4
f 6//5 2//5 7//5
f 7//6 2//6 8//6
f 8//7 2//7 9//7
f 9//8 2//8 10//8
f 10//9 2//9 11//9
f 11//10 2//10 12//10
f 12//11 2//11 13//11
f 13//12 2//12 14//12
f 14//13 2//13 15//13
f 15//14 2//14 16//14
f 16//15 2//15 17//15
f 17//16 2//16 18//16
f 18//17 2//17 19//17
f 19//18 2//18 20//18
f 20//19 2//19 21//19
f 21//20 2//20 22//20
f 22//21 2//21 23//21
f 23//22 2//22 24//22
f 24//23 2//23 25//23
f 25//24 2//24 26//24
f 26//25 2//25 27//25
f 27//26 2//26 28//26
f 28//27 2//27 29//27
f 29//28 2//28 30//28
f 30//29 2//29 31//29
f 31//30 2//30 32//30
f 32//31 2//31 33//31
f 33//32 2//32 1//32
f 1//33 3//33 4//33 5//33 6//33 7//33 8//33 9//33 10//33 11//33 12//33 13//33 14//33 15//33 16//33 17//33 18//33 19//33 20//33 21//33 22//33 23//33 24//33 25//33 26//33 27//33 28//33 29//33 30//33 31//33 32//33 33//33
